<?xml version="1.0" encoding="utf-8"?>
<!-- Generator: Adobe Illustrator 19.1.0, SVG Export Plug-In . SVG Version: 6.00 Build 0)  -->
<svg version="1.1" id="Layer_1" xmlns="http://www.w3.org/2000/svg" xmlns:xlink="http://www.w3.org/1999/xlink" x="0px" y="0px"
	 width="24px" height="24px" viewBox="0 0 24 24" enable-background="new 0 0 24 24" xml:space="preserve">
<path d="M18.5,15.4c0.1,0.1,0.3,0.1,0.4,0.2c0.9,0.4,1.8,0.7,2.7,0.9c0.4,0.1,0.8,0.1,1.2,0.1c0.2,0,0.5-0.1,0.7-0.2
	c0.1-0.1,0.2-0.1,0.2,0c0.1,0.1,0.1,0.2,0.1,0.3c-0.1,0.4-0.3,0.7-0.7,0.9c-0.1,0.1-0.3,0.1-0.4,0.1c-0.4,0-0.9,0-1.3-0.1
	c-0.8-0.1-1.5-0.3-2.3-0.5c-0.5-0.1-0.9-0.3-1.4-0.5c-0.5-0.2-0.9-0.4-1.4-0.7c-0.1-0.1-0.3-0.2-0.4-0.2c-0.2,0-0.4,0-0.6,0
	c-0.5,0.1-1.1,0.2-1.6,0.3c-0.5,0.1-0.9,0.2-1.4,0.3c-0.6,0.1-1.3,0.3-1.9,0.5c-0.7,0.2-1.4,0.4-2.2,0.6c-0.3,0.1-0.6,0.2-0.9,0.3
	c-0.3,0.1-0.4,0.2-0.5,0.5c-0.7,1.1-1.3,2.3-2.2,3.3c-0.3,0.4-0.6,0.7-0.9,1c-0.4,0.5-0.9,0.8-1.4,1.1c-0.6,0.3-1.2,0.3-1.7,0
	c-0.2-0.1-0.4-0.2-0.5-0.3c-0.3-0.3-0.3-0.6-0.2-1c0.1-0.4,0.4-0.8,0.7-1.2c0.2-0.2,0.4-0.5,0.6-0.7c0.6-0.6,1.3-1.1,2-1.5
	c0.3-0.2,0.7-0.4,1-0.6c0.1-0.1,0.3-0.1,0.4-0.2c0.1,0,0.1,0,0.2,0c0,0.1,0,0.2-0.1,0.2c-0.2,0.2-0.4,0.4-0.6,0.6
	c-0.2,0.2-0.4,0.3-0.6,0.5c-0.4,0.4-0.8,0.8-1.2,1.2c-0.5,0.5-0.9,1.1-1.3,1.7c-0.1,0.2-0.2,0.3-0.1,0.5c0.3,0,0.5-0.2,0.7-0.4
	c0.2-0.2,0.5-0.4,0.7-0.6c0.4-0.5,0.9-1,1.2-1.5c0.6-0.9,1.2-1.8,1.8-2.8C6,17.1,6.3,16.6,6.6,16c0.6-1.2,1.2-2.3,1.8-3.5
	c0.5-0.9,0.9-1.9,1.3-2.8C9.8,9.5,9.9,9.3,10,9c0.1-0.2,0.1-0.5,0.1-0.8c-0.2-1-0.5-2-0.7-3c-0.1-0.5-0.2-1-0.2-1.5
	c0-0.4-0.1-0.7-0.1-1.1c0-0.5,0-1,0.1-1.4c0.1-0.5,0.5-0.8,1-0.9c0.3-0.1,0.6-0.1,0.9,0C11.5,0.3,11.8,0.7,12,1
	c0.1,0.3,0.2,0.6,0.2,0.9c0,0.3-0.1,0.6-0.1,0.8c0,0.1,0,0.2-0.1,0.4c0,0.1-0.1,0.1-0.2,0.1c0-0.1-0.1-0.1-0.1-0.2
	c0-0.3-0.1-0.5-0.1-0.8c-0.1-0.5-0.3-1-0.7-1.4c-0.1-0.1-0.2-0.1-0.3,0.1c-0.1,0.2-0.1,0.4-0.1,0.6c0,0.4-0.1,0.8-0.1,1.1
	c0,0.6,0.1,1.2,0.2,1.8c0.1,0.5,0.2,1,0.3,1.6C10.9,6,11,6.1,11,6.2c0,0,0,0,0.1,0c0.1-0.2,0.1-0.4,0.2-0.6c0.1-0.5,0.3-1.1,0.4-1.6
	c0-0.1,0.1-0.2,0.1-0.2c0,0,0.1-0.1,0.1-0.1c0,0,0.1,0.1,0.1,0.1c0,0.1,0.1,0.3,0,0.4c0,0.2,0,0.5-0.1,0.7c0,0.5,0,1-0.1,1.5
	c-0.1,0.5-0.2,1-0.3,1.5c0,0.2,0.1,0.5,0.1,0.7c0.4,0.9,0.8,1.8,1.4,2.6c0.4,0.5,0.8,1,1.1,1.4c0.5,0.7,1.3,1.2,2,1.6
	c0.1,0.1,0.3,0.2,0.5,0.2c0.1,0,0.2,0,0.3,0c0.5-0.1,1.1-0.1,1.6-0.2c0.5,0,0.9-0.1,1.4-0.1c0.4,0,0.8,0,1.2,0
	c0.7,0,1.4,0.1,2.1,0.4c0.4,0.2,0.7,0.6,0.7,1.1c0,0.1,0,0.1,0,0.2c0,0.1-0.2,0.2-0.3,0.1c-0.4-0.3-0.8-0.5-1.3-0.6
	c-0.3-0.1-0.6-0.1-0.9-0.1c-0.6,0-1.2,0-1.8,0C19.3,15.2,18.9,15.3,18.5,15.4C18.5,15.3,18.5,15.4,18.5,15.4z M7.7,16.7
	c0.1,0,0.1,0,0.1,0c0.9-0.3,1.8-0.6,2.7-0.9c0.5-0.2,1.1-0.3,1.6-0.4c0.7-0.2,1.5-0.3,2.2-0.5c0.1,0,0.2-0.1,0.3-0.1c0,0,0,0,0-0.1
	c0,0-0.1,0-0.1-0.1c-0.4-0.3-0.8-0.6-1.2-1c-0.4-0.4-0.8-0.8-1.1-1.3c-0.5-0.6-0.9-1.2-1.3-1.9c0-0.1-0.1-0.1-0.2-0.2
	c0,0.1-0.1,0.1-0.1,0.2c-0.3,0.8-0.7,1.6-1,2.4c-0.2,0.6-0.5,1.1-0.8,1.6c-0.4,0.7-0.7,1.3-1.1,2C7.8,16.5,7.7,16.6,7.7,16.7z"/>
</svg>
